name C:\Users\u0101727\Documents\MyRepositories\upper-imu-dc\Results\main_tracking\Case_24\SHRUG01_linearAccelerations_groundFrame.mot
datacolumns 4
datarows 94
range 0.51000000 1.44000000
endheader 
time	radius_imu_x	radius_imu_y	radius_imu_z	
          0.51000000	          0.06554012	         10.95093747	          2.98529128	
          0.52000000	          0.13008667	         10.24353742	          1.44125495	
          0.53000000	          0.07899405	          9.84674498	          0.49536955	
          0.54000000	         -0.02125845	          9.60255090	         -0.02419170	
          0.55000000	         -0.12241170	          9.46543373	         -0.27487760	
          0.56000000	         -0.18562799	          9.40312733	         -0.39112610	
          0.57000000	         -0.19603005	          9.39281641	         -0.45643615	
          0.58000000	         -0.16067872	          9.41871264	         -0.50260505	
          0.59000000	         -0.09436322	          9.46855306	         -0.53113155	
          0.60000000	         -0.00939277	          9.53472958	         -0.53044066	
          0.61000000	          0.08732969	          9.61293947	         -0.48685241	
          0.62000000	          0.19243678	          9.70218719	         -0.38795605	
          0.63000000	          0.30432791	          9.80430658	         -0.22557582	
          0.64000000	          0.42110732	          9.92296964	          0.00264874	
          0.65000000	          0.53710963	         10.06172699	          0.29396352	
          0.66000000	          0.63979218	         10.22111328	          0.64112962	
          0.67000000	          0.70870111	         10.39676370	          1.03159267	
          0.68000000	          0.71761653	         10.58048872	          1.44606454	
          0.69000000	          0.63528472	         10.76264019	          1.86253528	
          0.70000000	          0.42467898	         10.93607698	          2.26707710	
          0.71000000	          0.04626837	         11.09873291	          2.66024501	
          0.72000000	         -0.53233643	         11.25182599	          3.04953666	
          0.73000000	         -1.32448691	         11.38876180	          3.42233947	
          0.74000000	         -2.31556831	         11.47140351	          3.69768740	
          0.75000000	         -3.45295542	         11.39119282	          3.65028645	
          0.76000000	         -4.59578143	         10.91547274	          2.80305622	
          0.77000000	         -5.37429146	          9.80852990	          0.48220920	
          0.78000000	         -3.35200651	          5.86781297	         -5.98417577	
          0.79000000	         -1.31667020	          6.72017581	         -7.84679782	
          0.80000000	          0.83379628	          8.87168807	         -3.05433105	
          0.81000000	          3.99860856	          9.29117433	         -1.70885509	
          0.82000000	          5.23844229	         10.57844634	         -0.92525910	
          0.83000000	          5.26816211	          9.70428989	         -2.65763008	
          0.84000000	          4.13822830	          8.39244284	         -4.61305946	
          0.85000000	          1.09950682	          9.02265201	         -1.85440882	
          0.86000000	         -1.72602257	          6.42565974	         -3.87514062	
          0.87000000	         -3.14118943	          5.34870263	         -8.19701959	
          0.88000000	         -5.56647585	          8.30217684	         -2.99631265	
          0.89000000	         -5.57364541	         11.47875114	          3.04105106	
          0.90000000	         -3.19796720	         12.99048685	          5.87969311	
          0.91000000	         -0.38651309	         14.07167397	          7.65359805	
          0.92000000	          2.44161530	         14.85905403	          8.62207211	
          0.93000000	          4.85149664	         15.47815150	          9.04216877	
          0.94000000	          6.34196395	         15.85991621	          8.85620283	
          0.95000000	          6.38966199	         15.62357793	          7.69017292	
          0.96000000	          4.28483453	         14.56218303	          5.00805911	
          0.97000000	          1.65926733	         11.30245260	         -1.56103474	
          0.98000000	         -0.90853032	          8.63698525	         -5.54129889	
          0.99000000	         -4.44397908	          7.38980433	         -6.66497854	
          1.00000000	         -5.38611388	          9.51581237	         -2.42185388	
          1.01000000	         -4.46237927	         11.52448936	          2.48612213	
          1.02000000	         -1.78105093	         12.28228801	          4.39789884	
          1.03000000	          0.71834492	         12.56529818	          5.11315865	
          1.04000000	          2.38491856	         12.16236996	          4.67075646	
          1.05000000	          2.89290839	         11.32764878	          2.81856184	
          1.06000000	          2.65623297	          8.44117178	         -2.28983295	
          1.07000000	          1.33705930	          8.13430838	         -5.41225011	
          1.08000000	          0.84324721	          7.32704407	         -6.37375043	
          1.09000000	          0.40838616	          6.48304695	         -8.00420456	
          1.10000000	          0.33533886	          7.49006767	         -7.44916327	
          1.11000000	          0.82423256	          7.64512578	         -8.51127030	
          1.12000000	          1.99228967	          6.83956471	         -6.93345984	
          1.13000000	          1.59006894	          9.41141155	         -0.27634063	
          1.14000000	          2.51622545	         10.97736272	          2.58973915	
          1.15000000	          2.15003363	         11.97389324	          4.10064107	
          1.16000000	          1.39586332	         12.44307456	          4.72336755	
          1.17000000	          0.60084340	         12.47222263	          4.85088491	
          1.18000000	          0.01208494	         12.27614865	          4.65397496	
          1.19000000	         -0.28577461	         11.99603648	          4.20759601	
          1.20000000	         -0.31951840	         11.71751742	          3.57250607	
          1.21000000	         -0.18506874	         11.46852229	          2.81953899	
          1.22000000	         -0.00619955	         11.24093248	          2.02803595	
          1.23000000	          0.09893021	         11.01421506	          1.27051763	
          1.24000000	          0.03955079	         10.77443103	          0.59905665	
          1.25000000	         -0.23887356	         10.52200955	          0.04054228	
          1.26000000	         -0.75534390	         10.26876590	         -0.39930561	
          1.27000000	         -1.49724116	         10.02830085	         -0.72707571	
          1.28000000	         -2.42175694	          9.80388205	         -0.95119537	
          1.29000000	         -3.45353956	          9.57412920	         -1.07053054	
          1.30000000	         -4.48201581	          9.27735419	         -1.06025968	
          1.31000000	         -5.36822205	          8.79356551	         -0.85531163	
          1.32000000	         -5.96802223	          7.95342341	         -0.34238236	
          1.33000000	         -6.19766361	          6.53046266	          0.60864265	
          1.34000000	         -6.05291169	          4.61979337	          1.96696080	
          1.35000000	         -5.93561119	          2.50329627	          2.62153413	
          1.36000000	         -5.28786360	          4.97526991	         -0.95049805	
          1.37000000	         -4.78089511	          7.54928348	         -1.87061770	
          1.38000000	         -4.34986872	          9.99790077	         -3.00738579	
          1.39000000	         -3.43088507	         11.77810993	         -2.28015542	
          1.40000000	         -2.49207079	         10.77062618	         -0.65316810	
          1.41000000	         -1.35043710	         10.45679154	         -0.24004233	
          1.42000000	         -0.64509991	          9.86120069	          0.89609296	
          1.43000000	          0.42112206	          9.51912756	          0.89279490	
          1.44000000	          1.40559928	          9.31718650	          0.46015675	
